<?xml version="1.0" encoding="UTF-8"?>
<!DOCTYPE svg PUBLIC "-//W3C//DTD SVG 1.1//EN" "http://www.w3.org/Graphics/SVG/1.1/DTD/svg11.dtd">
<!-- Creator: CorelDRAW Standard 2020 -->
<svg xmlns="http://www.w3.org/2000/svg" xml:space="preserve" width="84px" height="63px" version="1.1" style="shape-rendering:geometricPrecision; text-rendering:geometricPrecision; image-rendering:optimizeQuality; fill-rule:evenodd; clip-rule:evenodd"
viewBox="0 0 188.965 142.548"
 xmlns:xlink="http://www.w3.org/1999/xlink"
 xmlns:xodm="http://www.corel.com/coreldraw/odm/2003">
 <defs>
  <style type="text/css">
   <![CDATA[
    .fil0 {fill:black;fill-rule:nonzero}
   ]]>
  </style>
 </defs>
 <g id="Layer_x0020_1">
  <metadata id="CorelCorpID_0Corel-Layer"/>
  <g id="_676016760">
   <path class="fil0" d="M137.883 25.649c-0.002,-0.004 -0.006,-0.008 -0.009,-0.011 -6.906,2.927 -13.419,7.185 -19.999,12.822 -0.582,-7.22 0.05,-10.931 -5.531,-14.872l-3.302 10.831c-3.727,-4.755 -8.754,-10.757 -15.327,-13.121 0.256,28.355 17.352,24.483 11.408,42.156 -1.713,5.094 -2.445,10.184 -3.824,15.742 -10.17,-29.579 -24.17,-46.282 -49.021,-54.879 -0.953,-0.33 -1.925,-0.648 -2.91,-0.955 -0.102,-0.032 -0.206,-0.063 -0.307,-0.095 -0.966,-0.296 -1.945,-0.585 -2.942,-0.86 -12.579,-3.463 -27.693,-5.208 -46.119,-5.716 0.216,0.39 0.605,0.492 0.758,1.121l6.464 7.446c9.83,12.548 6.665,20.005 12.873,31.22 2.611,4.718 6.693,9.394 11.651,13.544 2.117,1.772 4.395,3.443 6.792,4.981 5.373,3.451 11.324,6.226 17.371,7.866 4.634,1.255 8.275,1.809 11.093,1.809 16.728,0 4.379,-19.54 -2.173,-27.785 -11.884,-14.954 -26.726,-19.764 -35.863,-26.206 30.39,3.62 64.659,37.966 65.252,76.352 0.072,4.66 -1.841,29.002 -2.618,35.509l5.52 -3.842c2.338,-21.448 6.035,-61.08 16.618,-79.706 6.137,-10.805 28.607,-28.524 48.36,-29.891 -5,3.414 -35.951,11.553 -34.779,26.455 3.671,2.03 7.72,2.863 11.819,2.863 4.176,0 8.395,-0.873 12.318,-2.22 0.93,-0.32 1.845,-0.663 2.735,-1.031 0.038,-0.015 0.075,-0.032 0.113,-0.048 0.901,-0.374 1.778,-0.769 2.629,-1.183 3.311,-1.613 6.215,-3.481 8.413,-5.298 5.901,-4.877 6.041,-6.554 10.538,-13.481 4.605,-7.093 7.715,-6.22 13.08,-10.827 -9.854,-2.338 -18.51,-3.515 -26.361,-3.515 -6.8,0 -12.991,0.896 -18.836,2.671 0.004,0.004 0.008,0.01 0.013,0.014 -2.003,0.609 -3.966,1.322 -5.897,2.14z"/>
   <path class="fil0" d="M154.191 55.176c-0.89,0.368 -1.805,0.711 -2.735,1.031 0.93,-0.32 1.845,-0.663 2.735,-1.031z"/>
   <path class="fil0" d="M151.723 62.921c0,28.412 -20.813,52.04 -47.993,56.475 -0.252,2.079 -0.487,4.107 -0.71,6.081 30.795,-4.182 54.611,-30.634 54.611,-62.556 0,-1.463 -0.055,-2.915 -0.155,-4.354 -1.857,0.837 -3.809,1.592 -5.82,2.226 0.028,0.708 0.067,1.413 0.067,2.128z"/>
   <path class="fil0" d="M156.933 53.945c-0.851,0.414 -1.728,0.809 -2.629,1.183 0.901,-0.374 1.778,-0.769 2.629,-1.183z"/>
   <path class="fil0" d="M93.878 120.145c-0.022,0 -0.043,-0.001 -0.064,-0.003 -0.119,1.914 -0.266,3.862 -0.442,5.897 0.06,0.001 0.121,0.005 0.183,0.006 0.127,-2.012 0.235,-3.989 0.323,-5.9z"/>
   <path class="fil0" d="M31.746 70.022c2.117,1.772 4.395,3.443 6.792,4.981 -2.397,-1.538 -4.675,-3.209 -6.792,-4.981z"/>
   <path class="fil0" d="M40.251 81.173c-2.578,-1.428 -5.067,-3.027 -7.436,-4.741 5.822,26.588 28.435,46.94 56.128,49.362 0.176,-2.016 0.322,-3.96 0.442,-5.881 -22.939,-2.035 -42.018,-17.651 -49.134,-38.74z"/>
   <path class="fil0" d="M137.883 25.649c1.931,-0.818 3.894,-1.531 5.897,-2.14 -0.005,-0.004 -0.009,-0.01 -0.013,-0.014 -2.001,0.608 -3.962,1.325 -5.893,2.143 0.003,0.003 0.007,0.007 0.009,0.011z"/>
   <path class="fil0" d="M52.278 24.317c-0.953,-0.33 -1.924,-0.649 -2.91,-0.955 0.985,0.307 1.957,0.625 2.91,0.955z"/>
   <path class="fil0" d="M46.119 22.407c0.997,0.275 1.976,0.564 2.942,0.86 -0.967,-0.296 -1.945,-0.585 -2.942,-0.86z"/>
   <path class="fil0" d="M89.142 0c-15.498,1.306 -29.4,8.252 -39.694,18.75 2.184,0.648 4.272,1.354 6.295,2.104 8.971,-8.271 20.57,-13.728 33.399,-14.922l0 -5.932zm10.681 5.932c13.526,1.258 25.688,7.253 34.841,16.291 1.958,-0.888 3.935,-1.674 5.936,-2.354 -10.391,-11.125 -24.731,-18.516 -40.777,-19.868l0 5.931z"/>
   <path class="fil0" d="M49.061 23.267c0.101,0.032 0.205,0.063 0.307,0.095 -0.102,-0.032 -0.206,-0.063 -0.307,-0.095z"/>
   <path class="fil0" d="M154.304 55.128c-0.038,0.016 -0.075,0.033 -0.113,0.048 0.038,-0.015 0.075,-0.032 0.113,-0.048z"/>
  </g>
 </g>
</svg>
