<?xml version="1.0" encoding="UTF-8"?>
<!DOCTYPE svg PUBLIC "-//W3C//DTD SVG 1.1//EN" "http://www.w3.org/Graphics/SVG/1.1/DTD/svg11.dtd">
<!-- Creator: CorelDRAW Standard 2020 -->
<svg xmlns="http://www.w3.org/2000/svg" xml:space="preserve" width="187px" height="141px" version="1.1" style="shape-rendering:geometricPrecision; text-rendering:geometricPrecision; image-rendering:optimizeQuality; fill-rule:evenodd; clip-rule:evenodd"
viewBox="0 0 248.635 187.562"
 xmlns:xlink="http://www.w3.org/1999/xlink"
 xmlns:xodm="http://www.corel.com/coreldraw/odm/2003">
 <defs>
  <style type="text/css">
   <![CDATA[
    .fil0 {fill:#FFFFFF;fill-rule:nonzero}
   ]]>
  </style>
 </defs>
 <g id="Layer_x0020_1">
  <metadata id="CorelCorpID_0Corel-Layer"/>
  <g id="_676303912">
   <path class="fil0" d="M181.423 33.747c-0.004,-0.004 -0.008,-0.009 -0.012,-0.013 -9.086,3.852 -17.657,9.453 -26.315,16.871 -0.765,-9.501 0.067,-14.383 -7.278,-19.57l-4.344 14.253c-4.903,-6.257 -11.518,-14.154 -20.167,-17.264 0.337,37.308 22.832,32.214 15.01,55.468 -2.254,6.701 -3.216,13.397 -5.031,20.711 -13.382,-38.918 -31.802,-60.896 -64.5,-72.209 -1.256,-0.434 -2.534,-0.851 -3.83,-1.255 -0.134,-0.042 -0.27,-0.083 -0.404,-0.124 -1.271,-0.391 -2.558,-0.771 -3.87,-1.132 -16.551,-4.557 -36.439,-6.854 -60.682,-7.521 0.285,0.512 0.795,0.647 0.998,1.475l8.503 9.796c12.934,16.511 8.77,26.323 16.938,41.079 3.436,6.207 8.808,12.361 15.33,17.821 2.787,2.332 5.784,4.53 8.937,6.555 7.069,4.539 14.9,8.192 22.857,10.348 6.098,1.653 10.889,2.381 14.596,2.381 22.01,0 5.762,-25.71 -2.86,-36.56 -15.637,-19.676 -35.164,-26.003 -47.186,-34.479 39.987,4.762 85.076,49.954 85.857,100.461 0.094,6.131 -2.423,38.159 -3.445,46.723l7.262 -5.057c3.077,-28.219 7.942,-80.367 21.866,-104.875 8.076,-14.216 37.642,-37.53 63.632,-39.329 -6.58,4.491 -47.305,15.2 -45.762,34.808 4.828,2.671 10.157,3.768 15.551,3.768 5.493,0 11.046,-1.149 16.208,-2.922 1.223,-0.42 2.426,-0.872 3.598,-1.355 0.05,-0.021 0.099,-0.043 0.148,-0.064 1.185,-0.492 2.341,-1.013 3.459,-1.558 4.358,-2.122 8.178,-4.579 11.07,-6.97 7.766,-6.416 7.95,-8.624 13.866,-17.738 6.06,-9.334 10.152,-8.183 17.212,-14.245 -12.967,-3.077 -24.357,-4.625 -34.686,-4.625 -8.948,0 -17.094,1.177 -24.784,3.514 0.005,0.006 0.01,0.012 0.015,0.018 -2.635,0.8 -5.217,1.739 -7.757,2.815z"/>
   <path class="fil0" d="M202.88 72.6c-1.172,0.483 -2.375,0.935 -3.598,1.355 1.223,-0.42 2.426,-0.871 3.598,-1.355z"/>
   <path class="fil0" d="M199.631 82.79c0,37.384 -27.385,68.472 -63.146,74.308 -0.331,2.736 -0.641,5.405 -0.935,8.001 40.519,-5.503 71.856,-40.306 71.856,-82.309 0,-1.926 -0.071,-3.836 -0.204,-5.728 -2.443,1.101 -5.012,2.093 -7.658,2.928 0.037,0.931 0.087,1.859 0.087,2.8z"/>
   <path class="fil0" d="M206.487 70.978c-1.118,0.545 -2.274,1.066 -3.459,1.558 1.185,-0.493 2.341,-1.013 3.459,-1.558z"/>
   <path class="fil0" d="M123.522 158.084c-0.028,-0.001 -0.056,-0.002 -0.084,-0.003 -0.157,2.517 -0.35,5.08 -0.583,7.758 0.081,0.001 0.16,0.007 0.241,0.008 0.168,-2.648 0.31,-5.25 0.426,-7.763z"/>
   <path class="fil0" d="M41.769 92.133c2.787,2.332 5.784,4.53 8.937,6.555 -3.153,-2.025 -6.15,-4.223 -8.937,-6.555z"/>
   <path class="fil0" d="M52.96 106.806c-3.391,-1.881 -6.666,-3.982 -9.784,-6.239 7.66,34.984 37.414,61.764 73.852,64.949 0.232,-2.651 0.424,-5.209 0.582,-7.737 -30.183,-2.678 -55.286,-23.226 -64.65,-50.973z"/>
   <path class="fil0" d="M181.423 33.747c2.54,-1.076 5.122,-2.015 7.757,-2.815 -0.005,-0.006 -0.01,-0.012 -0.015,-0.018 -2.634,0.8 -5.215,1.743 -7.754,2.82 0.004,0.004 0.008,0.009 0.012,0.013z"/>
   <path class="fil0" d="M68.786 31.994c-1.256,-0.434 -2.532,-0.852 -3.83,-1.255 1.296,0.404 2.574,0.821 3.83,1.255z"/>
   <path class="fil0" d="M60.682 29.483c1.312,0.361 2.599,0.741 3.87,1.132 -1.271,-0.39 -2.558,-0.771 -3.87,-1.132z"/>
   <path class="fil0" d="M117.29 0c-20.391,1.719 -38.683,10.857 -52.229,24.67 2.875,0.852 5.621,1.782 8.284,2.769 11.803,-10.883 27.066,-18.062 43.945,-19.634l0 -7.805zm14.054 7.805c17.797,1.656 33.8,9.544 45.842,21.435 2.578,-1.169 5.179,-2.203 7.812,-3.097 -13.673,-14.638 -32.542,-24.364 -53.654,-26.142l0 7.804z"/>
   <path class="fil0" d="M64.552 30.615c0.134,0.041 0.27,0.082 0.404,0.124 -0.134,-0.042 -0.27,-0.083 -0.404,-0.124z"/>
   <path class="fil0" d="M203.028 72.536c-0.049,0.021 -0.098,0.043 -0.148,0.064 0.05,-0.021 0.099,-0.043 0.148,-0.064z"/>
  </g>
 </g>
</svg>
