<?xml version="1.0" encoding="UTF-8"?>
<!DOCTYPE svg PUBLIC "-//W3C//DTD SVG 1.1//EN" "http://www.w3.org/Graphics/SVG/1.1/DTD/svg11.dtd">
<!-- Creator: CorelDRAW Standard 2020 -->
<svg xmlns="http://www.w3.org/2000/svg" xml:space="preserve" width="975px" height="141px" version="1.1" style="shape-rendering:geometricPrecision; text-rendering:geometricPrecision; image-rendering:optimizeQuality; fill-rule:evenodd; clip-rule:evenodd"
viewBox="0 0 1034.269 149.886"
 xmlns:xlink="http://www.w3.org/1999/xlink"
 xmlns:xodm="http://www.corel.com/coreldraw/odm/2003">
 <defs>
  <style type="text/css">
   <![CDATA[
    .fil0 {fill:#FFFFFF}
    .fil1 {fill:#FFFFFF;fill-rule:nonzero}
   ]]>
  </style>
 </defs>
 <g id="Layer_x0020_1">
  <metadata id="CorelCorpID_0Corel-Layer"/>
  <path class="fil0" d="M0 117.381l0 -7.754 46.527 0 0 -7.756 -38.773 0 -7.754 -7.754 0 -7.755 7.754 -7.754 31.019 0 0 7.754 -31.019 0 0 7.755 38.773 0 7.755 7.754 0 7.756 -7.755 7.754 -46.527 0zm62.036 0l0 0 0 -54.282 7.755 0 0 15.509 38.772 0 7.755 7.754 0 31.019 -7.755 0 0 -31.019 -38.772 0 0 31.019 -7.755 0zm108.564 -7.754l0 0 0 -7.756 -38.772 0 0 7.756 38.772 0zm-38.772 7.754l0 0 -7.756 -7.754 0 -7.756 7.756 -7.754 38.772 0 0 -7.755 -31.018 0 0 -7.754 31.018 0 7.755 7.754 0 31.019 -46.527 0zm54.281 0l0 0 0 -38.773 46.527 0 7.756 7.754 0 31.019 -7.756 0 0 -31.019 -38.772 0 0 31.019 -7.755 0zm77.546 0l0 0 -7.754 -7.754 0 -23.265 -7.755 0 0 -7.754 7.755 0 0 -7.754 7.754 0 0 7.754 23.264 0 0 7.754 -23.264 0 0 23.265 31.019 0 0 7.754 -31.019 0zm85.3 -23.264l0 0 0 -7.755 -38.772 0 0 7.755 38.772 0zm-38.772 23.264l0 0 -7.755 -7.754 0 -23.265 7.755 -7.754 38.772 0 7.755 7.754 0 7.755 -7.755 7.754 -38.772 0 0 7.756 31.017 0 0 7.754 -31.017 0zm100.809 -7.754l0 0 0 -7.756 -38.773 0 0 7.756 38.773 0zm-38.773 7.754l0 0 -7.754 -7.754 0 -7.756 7.754 -7.754 38.773 0 0 -7.755 -31.018 0 0 -7.754 31.018 0 7.755 7.754 0 31.019 -46.528 0zm243.303 0l0 0 -7.755 -7.754 0 -23.265 7.755 -7.754 38.773 0 0 7.754 -38.773 0 0 23.265 38.773 0 0 7.754 -38.773 0zm93.055 -7.754l0 0 0 -23.265 -38.773 0 0 23.265 38.773 0zm-38.773 7.754l0 0 -7.755 -7.754 0 -23.265 7.755 -7.754 38.773 0 7.754 7.754 0 23.265 -7.754 7.754 -38.773 0zm54.282 0l0 0 0 -38.773 46.527 0 7.755 7.754 0 31.019 -7.755 0 0 -31.019 -38.772 0 0 31.019 -7.755 0zm77.546 0l0 0 -7.755 -7.754 0 -23.265 -7.755 0 0 -7.754 7.755 0 0 -7.754 7.755 0 0 7.754 23.263 0 0 7.754 -23.263 0 0 23.265 31.018 0 0 7.754 -31.018 0zm38.772 0l0 0 0 -31.019 7.755 -7.754 38.773 0 0 7.754 -38.773 0 0 31.019 -7.755 0zm100.809 -7.754l0 0 0 -23.265 -38.772 0 0 23.265 38.772 0zm-38.772 7.754l0 0 -7.754 -7.754 0 -23.265 7.754 -7.754 38.772 0 7.755 7.754 0 23.265 -7.755 7.754 -38.772 0zm62.037 0l0 0 -7.755 -7.754 0 -46.528 7.755 0 0 46.528 7.754 0 0 7.754 -7.754 0zm15.509 0l0 0 0 -7.754 46.527 0 0 -7.756 -38.773 0 -7.754 -7.754 0 -7.755 7.754 -7.754 31.019 0 0 7.754 -31.019 0 0 7.755 38.773 0 7.755 7.754 0 7.756 -7.755 7.754 -46.527 0z"/>
  <g id="_669437120">
   <path class="fil1" d="M562.77 26.968c-0.003,-0.003 -0.007,-0.007 -0.01,-0.01 -7.261,3.078 -14.11,7.554 -21.028,13.482 -0.612,-7.592 0.053,-11.494 -5.817,-15.639l-3.471 11.39c-3.918,-5.001 -9.204,-11.311 -16.116,-13.796 0.269,29.813 18.245,25.743 11.995,44.326 -1.802,5.355 -2.57,10.706 -4.02,16.551 -10.694,-31.101 -25.415,-48.665 -51.545,-57.705 -1.003,-0.347 -2.024,-0.679 -3.06,-1.003 -0.107,-0.033 -0.216,-0.066 -0.323,-0.099 -1.015,-0.312 -2.044,-0.616 -3.092,-0.904 -13.227,-3.642 -29.12,-5.478 -48.493,-6.011 0.228,0.409 0.635,0.517 0.798,1.179l6.795 7.828c10.336,13.195 7.008,21.036 13.535,32.828 2.746,4.96 7.039,9.878 12.251,14.241 2.227,1.864 4.622,3.62 7.142,5.238 5.649,3.628 11.906,6.547 18.266,8.27 4.873,1.32 8.701,1.902 11.664,1.902 17.588,0 4.604,-20.545 -2.286,-29.216 -12.496,-15.724 -28.101,-20.78 -37.708,-27.553 31.955,3.805 67.987,39.92 68.611,80.281 0.075,4.899 -1.936,30.494 -2.753,37.338l5.803 -4.041c2.459,-22.551 6.346,-64.224 17.474,-83.809 6.453,-11.36 30.08,-29.991 50.85,-31.429 -5.258,3.589 -37.803,12.147 -36.57,27.817 3.859,2.134 8.117,3.011 12.427,3.011 4.39,0 8.827,-0.919 12.952,-2.335 0.978,-0.336 1.939,-0.697 2.876,-1.084 0.04,-0.016 0.079,-0.033 0.119,-0.05 0.946,-0.394 1.87,-0.81 2.764,-1.245 3.482,-1.696 6.534,-3.66 8.846,-5.571 6.205,-5.127 6.353,-6.891 11.08,-14.174 4.844,-7.459 8.113,-6.54 13.755,-11.384 -10.362,-2.459 -19.464,-3.696 -27.719,-3.696 -7.15,0 -13.66,0.941 -19.805,2.808 0.004,0.005 0.008,0.01 0.012,0.014 -2.106,0.64 -4.169,1.391 -6.199,2.25z"/>
   <path class="fil1" d="M579.917 58.016c-0.937,0.387 -1.898,0.748 -2.876,1.084 0.978,-0.336 1.939,-0.696 2.876,-1.084z"/>
   <path class="fil1" d="M577.321 66.159c0,29.875 -21.884,54.719 -50.462,59.382 -0.265,2.187 -0.512,4.319 -0.747,6.394 32.38,-4.397 57.422,-32.209 57.422,-65.776 0,-1.538 -0.057,-3.065 -0.163,-4.577 -1.953,0.88 -4.005,1.673 -6.12,2.34 0.03,0.744 0.07,1.486 0.07,2.237z"/>
   <path class="fil1" d="M582.8 56.721c-0.894,0.435 -1.818,0.851 -2.764,1.245 0.946,-0.394 1.87,-0.81 2.764,-1.245z"/>
   <path class="fil1" d="M516.5 126.329c-0.023,0 -0.045,-0.002 -0.068,-0.002 -0.125,2.011 -0.279,4.06 -0.465,6.199 0.064,0.001 0.128,0.006 0.192,0.007 0.134,-2.116 0.248,-4.196 0.341,-6.204z"/>
   <path class="fil1" d="M451.169 73.626c2.227,1.864 4.622,3.62 7.142,5.238 -2.52,-1.618 -4.915,-3.374 -7.142,-5.238z"/>
   <path class="fil1" d="M460.112 85.351c-2.71,-1.502 -5.327,-3.182 -7.818,-4.985 6.121,27.957 29.898,49.357 59.017,51.903 0.184,-2.119 0.338,-4.164 0.464,-6.184 -24.12,-2.14 -44.18,-18.56 -51.663,-40.734z"/>
   <path class="fil1" d="M562.77 26.968c2.03,-0.859 4.093,-1.61 6.199,-2.25 -0.004,-0.004 -0.008,-0.009 -0.012,-0.014 -2.105,0.64 -4.167,1.393 -6.197,2.254 0.003,0.003 0.007,0.007 0.01,0.01z"/>
   <path class="fil1" d="M472.758 25.567c-1.003,-0.347 -2.023,-0.681 -3.06,-1.003 1.036,0.324 2.057,0.656 3.06,1.003z"/>
   <path class="fil1" d="M466.283 23.561c1.048,0.288 2.077,0.592 3.092,0.904 -1.015,-0.312 -2.044,-0.616 -3.092,-0.904z"/>
   <path class="fil1" d="M511.52 0c-16.296,1.373 -30.913,8.676 -41.738,19.714 2.297,0.681 4.492,1.424 6.62,2.213 9.432,-8.697 21.629,-14.434 35.118,-15.69l0 -6.237zm11.231 6.237c14.221,1.323 27.01,7.627 36.634,17.129 2.059,-0.934 4.138,-1.76 6.242,-2.474 -10.926,-11.698 -26.005,-19.47 -42.876,-20.891l0 6.236z"/>
   <path class="fil1" d="M469.375 24.465c0.107,0.033 0.216,0.066 0.323,0.099 -0.107,-0.034 -0.216,-0.066 -0.323,-0.099z"/>
   <path class="fil1" d="M580.036 57.966c-0.04,0.017 -0.079,0.034 -0.119,0.05 0.04,-0.016 0.079,-0.033 0.119,-0.05z"/>
  </g>
 </g>
</svg>
